<?xml version="1.0" encoding="utf-8"?>
<!-- Generator: Adobe Illustrator 25.2.1, SVG Export Plug-In . SVG Version: 6.00 Build 0)  -->
<svg version="1.1" id="Layer_1" xmlns="http://www.w3.org/2000/svg" xmlns:xlink="http://www.w3.org/1999/xlink" x="0px" y="0px"
	 viewBox="0 0 100 100" style="enable-background:new 0 0 100 100;" xml:space="preserve">
<style type="text/css">
	.st0{fill:#EA6958;}
	.st1{fill:#FFFFFF;}
</style>
<circle class="st0" cx="49.93" cy="50" r="49.32"/>
<path class="st1" d="M76.18,72.81H58.12c1.21-1.06,2.23-2.26,3.02-3.6c1.45-2.46,2.18-5.06,2.18-7.79c0-3.57-0.81-6.42-2.43-8.55
	c-1.62-2.12-3.6-3.7-5.95-4.74c-1.78-0.78-3.97-1.57-6.58-2.37v-22.5c1.59,0.47,2.98,1.18,4.15,2.16c2.23,1.87,3.55,4.01,3.94,6.41
	h6.37c-0.5-4.19-2.42-7.61-5.74-10.27c-3.32-2.65-7.7-3.98-13.12-3.98c-3.69,0-6.96,0.67-9.81,2.01s-5.06,3.2-6.62,5.57
	c-1.56,2.38-2.35,5.07-2.35,8.09c0,3.63,0.81,6.51,2.43,8.63c1.62,2.12,3.57,3.69,5.87,4.69c2.28,1,5.37,2.03,9.27,3.09v22.74
	c-3.47-0.25-6.17-1.31-8.1-3.16c-2.24-2.15-3.49-4.65-3.77-7.5h-6.2c0.11,2.96,1.01,5.64,2.68,8.05c1.68,2.4,3.98,4.27,6.91,5.62
	c2.49,1.14,5.32,1.79,8.47,1.96v0.01h0.1c0.53,0.03,1.06,0.04,1.61,0.04c0.54,0,1.06-0.02,1.58-0.04h30.14V72.81z M50.66,52.15
	c1.9,0.75,3.49,1.9,4.78,3.44c1.28,1.54,1.93,3.56,1.93,6.08c0,3.13-1.16,5.71-3.48,7.75c-1.5,1.32-3.34,2.2-5.53,2.67V51.32
	C49.22,51.61,49.99,51.88,50.66,52.15z M37.88,42.47c-1.93-0.78-3.53-1.93-4.82-3.44c-1.29-1.51-1.93-3.49-1.93-5.95
	c0-3.24,1.17-5.8,3.52-7.67c2.19-1.74,4.89-2.67,8.1-2.78v21.51C40.82,43.56,39.19,43,37.88,42.47z"/>
</svg>
